# xmcd CD database file
#
# Track frame offsets:
#	150
#	21020
#	39332
#
# Disc length: 803 seconds
#
# Revision: 0
# Processed by: cddbd v1.5PL3 Copyright (c) Steve Scherf et al.
# Submitted via: CDex 1.51
#
DISCID=17032103
DTITLE=相川七瀬 - バイバイ。
DYEAR=1996
DGENRE=JPop
TTITLE0=バイバイ。
TTITLE1=情熱に死す
TTITLE2=バイバイ。  ORIGINAL KARAOKE
EXTD=YEAR: 1996
EXTT0=
EXTT1=
EXTT2=
PLAYORDER=
